<svg xmlns="http://www.w3.org/2000/svg" width="1200" height="630" viewBox="0 0 1200 630" role="img" aria-labelledby="title desc">
  <title id="title">Who Holds the Camera? 西方镜头中的中国</title>
  <desc id="desc">Warm paper exhibition sharing card with archival frames and restrained red accent.</desc>
  <rect width="1200" height="630" fill="#f7f4ee"/>
  <rect x="40" y="40" width="1120" height="550" fill="#fffdf8" stroke="#111111" stroke-opacity="0.14"/>
  <line x1="82" y1="142" x2="1118" y2="142" stroke="#111111" stroke-opacity="0.16"/>
  <line x1="82" y1="508" x2="1118" y2="508" stroke="#111111" stroke-opacity="0.16"/>
  <g fill="none" stroke="#111111" stroke-opacity="0.16">
    <rect x="790" y="176" width="270" height="184" rx="4"/>
    <rect x="884" y="292" width="210" height="156" rx="4"/>
    <rect x="734" y="382" width="128" height="96" rx="4"/>
  </g>
  <g stroke="#8f2d24" stroke-width="2" stroke-linecap="round" opacity="0.78">
    <path d="M818 248 C852 213 890 210 918 235"/>
    <path d="M825 282 C874 260 914 264 950 294"/>
    <path d="M926 356 C956 331 992 328 1026 348"/>
    <path d="M775 438 C798 414 830 414 852 436"/>
  </g>
  <text x="82" y="116" fill="#8f2d24" font-family="Inter, Arial, sans-serif" font-size="23" font-weight="700" letter-spacing="2">
    DIGITAL EXHIBITION / ONLINE ARCHIVE EXHIBITION
  </text>
  <text x="82" y="262" fill="#111111" font-family="Georgia, 'Noto Serif SC', serif" font-size="92" font-weight="500">
    Who Holds the Camera?
  </text>
  <text x="82" y="358" fill="#111111" font-family="Georgia, 'Noto Serif SC', serif" font-size="72" font-weight="500">
    西方镜头中的中国
  </text>
  <text x="82" y="420" fill="#6f6a61" font-family="Georgia, 'Noto Serif SC', serif" font-size="42">
    China Through Other Lenses
  </text>
  <text x="82" y="552" fill="#111111" font-family="Inter, 'Noto Sans SC', Arial, sans-serif" font-size="26">
    摄影、权力、记忆与“中国”视觉形成
  </text>
</svg>
